<svg xmlns="http://www.w3.org/2000/svg" xmlns:xlink="http://www.w3.org/1999/xlink" width="1596" height="512" viewBox="0 0 1596 512">
  <defs>
    <style>
      .cls-1 {
        fill-rule: evenodd;
        filter: url(#filter);
      }
    </style>
    <filter id="filter" x="0" y="14.563" width="1596" height="483.188" filterUnits="userSpaceOnUse">
      <feFlood result="flood" flood-color="#444"/>
      <feComposite result="composite" operator="in" in2="SourceGraphic"/>
      <feBlend result="blend" in2="SourceGraphic"/>
    </filter>
  </defs>
  <path id="Color_Fill_1" data-name="Color Fill 1" class="cls-1" d="M988,334c-0.917,15.262-2.014,31.121,8,38,11.29,7.759,69.5,3,89,3h266c14.34-4.054,31-25.395,26-48-7.78-35.183-101.84-23.007-146-23-68.76.012-234.226,11.762-275-13-22.853-13.878-34.987-35.859-42-66-5.078-21.822-4.9-52.172,1-74,7.36-27.246,18.237-51.891,33-72,19.086-26,48.643-47.531,83-58,29.27-8.919,71.55-6,109-6h197c67.39,0,139.4-4.69,182,20,47.92,27.774,65.26,65.718,77,131H1458c-5.85-33.872-44.11-27-83-27H1174c-25.24,0-66.1-6.373-87,2-17.64,7.069-37.6,51.564-10,63l89,1h184c34.84,0,76.58-4.5,108,2,63.13,13.053,93.51,61.262,75,141-5.02,21.643-12.65,43.8-23,61-24.71,41.087-65.68,72.741-119,85-30.67,7.052-73.68,2-108,2H1068c-80.147,0-172.189,6.684-208-38-29.128-36.345-22.807-77.2-10-124H988ZM702,492H559c0.839-38.543,18.879-141.448-1-167-12.237-15.729-63.138-9-90-9H209L141,491,0,492,186,20H532c56.4,0,127.83-6.525,168,11,108.105,47.163,52.766,206.164-25,244l4,4c4.09,8.9,10.771,16.422,14,27C708.47,356.68,701.944,429.774,702,492ZM276,146l-19,52H525c40.965,0,86.368,8.192,90-30,2.942-30.939-50.9-22-79-22H276ZM755,422h70l-26,69H729Z"/>
</svg>
